<?xml version="1.0" encoding="UTF-8"?>
<svg width="274px" height="174px" viewBox="0 0 274 174" version="1.1" xmlns="http://www.w3.org/2000/svg" xmlns:xlink="http://www.w3.org/1999/xlink">
    <title>Group 198</title>
    <defs>
        <polygon id="path-1" points="0 174 274 174 274 0 0 0"></polygon>
    </defs>
    <g id="Page-1" stroke="none" stroke-width="1" fill="none" fill-rule="evenodd">
        <g id="1" transform="translate(-50.000000, -76.000000)">
            <g id="Group-198" transform="translate(50.000000, 76.000000)">
                <path d="M55.2152161,76.064075 C55.1671975,75.1257636 55.331291,74.2801138 55.7342136,73.6026943 C57.1713403,71.1855754 60.2299055,73.3151734 63.6473461,76.5399779 C65.0514375,77.8647692 66.4956045,79.9923881 67.7103295,82.0392204 C67.5352242,82.1264843 67.3666177,82.2234641 67.2072178,82.3317793 C66.1129003,83.0710931 65.3978571,84.2758742 65.3229409,85.6089421 C63.4825306,84.7310856 61.5500546,83.6193261 60.1963286,82.3423949 C57.7361901,80.0208163 55.3381508,78.4756163 55.2152161,76.064075 L55.2152161,76.064075 Z M70.9254063,71.997759 C71.6924395,68.2630457 71.9397531,64.8683915 73.5770774,63.8921159 C74.2144966,63.5121132 74.8607614,63.4163929 75.471644,63.6643302 C77.6532388,64.548484 77.2264874,68.9323685 76.1623169,74.1217794 C75.5826643,76.9471493 74.045168,80.3398242 72.765275,82.8458264 C72.1538508,82.2355192 71.3610031,81.8121545 70.4842133,81.6500416 C70.3614591,78.6096608 70.3634448,74.7403632 70.9254063,71.997759 L70.9254063,71.997759 Z M80.3332517,150.028384 L109.661395,142.000468 L97.1834312,82.6999068 L86.7547403,84.0743576 L82.9684954,84.5639349 L82.9699396,84.5738308 L73.9944417,85.756481 C73.992817,85.5769154 73.9837909,85.3959103 73.9574349,85.2132859 C73.898224,84.7980179 73.7776361,84.4068599 73.6088491,84.0441301 C76.704421,81.2340539 81.3750377,76.3618517 82.3058033,71.8257502 C82.6052874,70.365475 82.7334572,68.9003418 82.7119753,67.4805497 C82.6303798,62.1857025 80.4372317,57.5245529 77.0163611,56.1375073 C72.6784445,54.3789156 68.0128825,58.5508479 66.5956131,65.456388 C66.2307804,67.2349515 66.3338578,69.4892379 66.6874982,71.8547182 C65.9605406,70.2463643 65.1296031,68.8796503 64.1881867,67.9917181 C63.2267325,67.083814 62.1993882,66.3900214 61.1511035,65.9004441 C57.2412018,64.0756398 53.031094,65.1348612 50.7765688,68.9251715 C47.9174792,73.7324206 49.2869105,81.1081061 53.8347729,85.3986092 C55.2589021,86.7419329 57.445732,87.4736898 59.7784227,87.8454159 L44.5424609,90.1466628 L49.4051517,150.524078 L60.4918412,150.369702 L60.5030335,150.476938 L68.4318714,150.369162 L68.4174298,150.260128 L79.8162399,150.101253 L79.8254465,150.167106 L80.0790783,150.097295 L80.3424582,150.093697 L80.3332517,150.028384 Z" id="Fill-1" fill="#B3DEFF"></path>
                <path d="M181.611907,66.8864538 C181.818965,65.8966837 182.228928,65.0609298 182.851003,64.4655564 C185.069243,62.3413561 187.784458,65.3921726 190.586142,69.6805167 C191.73606,71.4428868 192.709067,74.0514465 193.456243,76.513187 C193.243589,76.5563691 193.034546,76.6112464 192.833085,76.6806976 C191.447768,77.1519225 190.34316,78.210604 189.895288,79.5783976 C188.150373,78.1625639 186.369535,76.4786413 185.259873,74.7801447 C183.243816,71.6924434 181.080815,69.4302403 181.611907,66.8864538 L181.611907,66.8864538 Z M199.696127,66.9370128 C201.553507,63.2584363 202.755054,59.7918119 204.792593,59.2221679 C205.585441,59.0004997 206.309871,59.0771479 206.900535,59.5015921 C209.012449,61.0167447 207.343533,65.4639629 204.764612,70.575466 C203.359979,73.3590932 200.764992,76.4714443 198.69207,78.7309485 C198.200693,77.9290206 197.461279,77.2721127 196.558675,76.8644015 C197.264511,73.6660461 198.333014,69.638594 199.696127,66.9370128 L199.696127,66.9370128 Z M188.348044,150.729571 L222.226577,150.36972 L225.096678,85.237234 L213.458317,83.824639 L209.235573,83.3019555 L209.234128,83.3122113 L199.217206,82.095915 C199.265224,81.9084326 199.304939,81.7178915 199.327504,81.5206932 C199.377508,81.072139 199.354943,80.6322211 199.272806,80.2084966 C203.389224,78.1278383 209.77515,74.3288916 212.030216,69.8613418 C212.75573,68.4224777 213.298556,66.9319749 213.666458,65.4484893 C215.038055,59.9141613 213.953666,54.4642183 210.642733,52.0875826 C206.444539,49.0738307 200.256284,52.1451587 196.823318,58.9472417 C195.939488,60.6989962 195.429336,63.0736528 195.159277,65.6323731 C194.817551,63.7602485 194.297109,62.1106916 193.525563,60.9298406 C192.737228,59.7227206 191.81928,58.7201757 190.822443,57.9247252 C187.103352,54.9591933 182.266476,54.9136722 178.787117,58.2446327 C174.375367,62.4692831 173.821168,70.5202289 177.548924,76.2271055 C178.716533,78.0135856 180.876285,79.3716632 183.292376,80.3947195 L166.2077,78.6357679 L154.817735,142.81285 L166.8314,145.675644 L166.813709,145.789897 L175.403433,147.839788 L175.418778,147.722297 L187.770738,150.665158 L187.761712,150.735509 L188.054878,150.73263 L188.33992,150.800822 L188.348044,150.729571 Z" id="Fill-3" fill="#B3DEFF"></path>
                <path d="M178.742799,69.4594422 C178.742799,69.4594422 179.54377,71.1093589 181.791616,70.9445472 L182.067452,69.7172754 C180.227763,69.7852873 179.704253,68.2273125 179.704253,68.2273125 C179.819064,68.9274025 178.742799,69.4594422 178.742799,69.4594422" id="Fill-5" fill="#FFCBA2"></path>
                <path d="M230.120899,84.9949824 C230.120899,84.9949824 233.240841,83.4003028 236.231711,83.0269574 L236.328832,81.7133214 C233.27496,80.5459649 230.033888,82.7475331 230.033888,82.7475331 C231.262694,82.9524682 230.120899,84.9949824 230.120899,84.9949824" id="Fill-7" fill="#FFCBA2"></path>
                <path d="M142.275289,112.379929 C142.275289,112.379929 140.324761,115.144484 137.750353,116.534409 L138.461244,118.005839 C142.034294,118.281665 143.729204,114.809463 143.729204,114.809463 C142.451658,114.987229 142.275289,112.379929 142.275289,112.379929" id="Fill-9" fill="#FFCBA2"></path>
                <path d="M207.512952,50.3322655 C207.512952,50.3322655 211.741293,48.4844308 215.717806,48.6729927 L215.931363,46.4600891 C211.966402,43.6309408 207.538947,46.4831196 207.538947,46.4831196 C209.153526,47.172774 207.512952,50.3322655 207.512952,50.3322655" id="Fill-11" fill="#FFCBA2"></path>
                <path d="M174.867232,117.747124 C174.867232,117.747124 175.668564,119.397221 177.91641,119.233129 L178.192607,118.004958 C176.352197,118.07279 175.828506,116.516254 175.828506,116.516254 C175.943317,117.215085 174.867232,117.747124 174.867232,117.747124" id="Fill-13" fill="#FFCBA2"></path>
                <path d="M181.029276,89.0997844 C181.029276,89.0997844 184.148677,87.5052847 187.140088,87.1319394 L187.237028,85.8172238 C184.183156,84.6507669 180.942265,86.8523352 180.942265,86.8523352 C182.171251,87.0560108 181.029276,89.0997844 181.029276,89.0997844" id="Fill-15" fill="#FFCBA2"></path>
                <path d="M130.021893,70.3706748 C130.021893,70.3706748 128.071185,73.1352299 125.496957,74.5262339 L126.207848,75.9965849 C129.780898,76.27403 131.475808,72.8002087 131.475808,72.8002087 C130.198262,72.9785148 130.021893,70.3706748 130.021893,70.3706748" id="Fill-17" fill="#FFCBA2"></path>
                <path d="M255.440198,95.7413019 C255.440198,95.7413019 253.490031,98.5056771 250.915261,99.896681 L251.626514,101.367212 C255.199563,101.644477 256.894474,98.1706558 256.894474,98.1706558 C255.616566,98.348962 255.440198,95.7413019 255.440198,95.7413019" id="Fill-19" fill="#FFCBA2"></path>
                <path d="M145.713815,83.1834206 C145.713815,83.1834206 141.485835,85.0312553 137.508961,84.8423336 L137.295946,87.055597 C141.260726,89.8843855 145.68782,87.0325665 145.68782,87.0325665 C144.073602,86.3429121 145.713815,83.1834206 145.713815,83.1834206" id="Fill-21" fill="#FFCBA2"></path>
                <path d="M191.795126,113.048154 C191.795126,113.048154 190.266656,113.716218 188.82971,113.648206 L188.752627,114.447435 C190.185602,115.470311 191.7861,114.439698 191.7861,114.439698 C191.202295,114.190681 191.795126,113.048154 191.795126,113.048154" id="Fill-23" fill="#FFCBA2"></path>
                <path d="M123.072905,87.171559 C123.072905,87.171559 122.28818,88.2843981 121.25181,88.8441463 L121.538116,89.4359212 C122.976507,89.5472951 123.658514,88.149454 123.658514,88.149454 C123.14421,88.2210643 123.072905,87.171559 123.072905,87.171559" id="Fill-25" fill="#FFCBA2"></path>
                <path d="M251.466969,80.0162822 C251.466969,80.0162822 250.682245,81.1291214 249.645694,81.6886896 L249.932542,82.2804645 C251.37039,82.3923782 252.052398,80.9939973 252.052398,80.9939973 C251.538275,81.0661474 251.466969,80.0162822 251.466969,80.0162822" id="Fill-27" fill="#FFCBA2"></path>
                <path d="M139.831903,98.2025386 C139.831903,98.2025386 138.129591,98.9467104 136.529274,98.8706019 L136.443346,99.7612331 C138.03915,100.899802 139.821072,99.751877 139.821072,99.751877 C139.171377,99.474072 139.831903,98.2025386 139.831903,98.2025386" id="Fill-29" fill="#FFCBA2"></path>
                <path d="M215.911758,101.399563 C215.911758,101.399563 214.62663,103.220948 212.930817,104.136589 L213.399088,105.105848 C215.75308,105.288112 216.869421,103.00018 216.869421,103.00018 C216.027833,103.117671 215.911758,101.399563 215.911758,101.399563" id="Fill-31" fill="#FFCBA2"></path>
                <path d="M219.101544,91.3283954 C219.101544,91.3283954 217.980148,91.8183325 216.925365,91.7681333 L216.869403,92.3552302 C217.920576,93.1053395 219.094684,92.3489328 219.094684,92.3489328 C218.666489,92.1661285 219.101544,91.3283954 219.101544,91.3283954" id="Fill-33" fill="#FFCBA2"></path>
                <path d="M16.3177152,112.2963 C16.3177152,112.2963 17.6109667,114.809859 17.9137002,117.219241 L18.9789539,117.297509 C19.9256054,114.837028 18.1402539,112.226129 18.1402539,112.226129 C17.9739942,113.216079 16.3177152,112.2963 16.3177152,112.2963" id="Fill-35" fill="#FFCBA2"></path>
                <path d="M44.4278482,94.0827128 C44.4278482,94.0827128 45.926352,97.489242 45.7736313,100.692815 L47.5680088,100.864824 C49.8624291,97.6706069 47.5494152,94.1035841 47.5494152,94.1035841 C46.989981,95.4044454 44.4278482,94.0827128 44.4278482,94.0827128" id="Fill-37" fill="#FFCBA2"></path>
                <path d="M7.60274497,132.693768 C7.60274497,132.693768 5.36121726,131.122839 4.23242023,129.048298 L3.04026037,129.621721 C2.8156924,132.499989 5.63235962,133.865803 5.63235962,133.865803 C5.48794292,132.83609 7.60274497,132.693768 7.60274497,132.693768" id="Fill-39" fill="#FFCBA2"></path>
                <path d="M20.3552089,129.493236 C20.3552089,129.493236 19.4527851,128.860978 18.9987751,128.026124 L18.5189506,128.256788 C18.4285096,129.415328 19.5623613,129.965001 19.5623613,129.965001 C19.503692,129.550272 20.3552089,129.493236 20.3552089,129.493236" id="Fill-41" fill="#FFCBA2"></path>
                <path d="M3.01444589,100.849063 C3.01444589,100.849063 1.53688252,99.8137713 0.794400163,98.4475971 L0.00841227278,98.8249009 C-0.139434324,100.721315 1.71613975,101.620403 1.71613975,101.620403 C1.62082473,100.942624 3.01444589,100.849063 3.01444589,100.849063" id="Fill-43" fill="#FFCBA2"></path>
                <path d="M11.1817879,103.418794 C11.1817879,103.418794 10.784281,102.515388 10.8247177,101.66578 L10.3488646,101.620439 C9.74050928,102.467528 10.3535582,103.413397 10.3535582,103.413397 C10.5023074,103.0683 11.1817879,103.418794 11.1817879,103.418794" id="Fill-45" fill="#FFCBA2"></path>
                <path d="M160.38731,33.8150519 C148.790107,42.4063139 144.196573,51.1044517 144.196573,51.1044517 C144.196573,51.1044517 158.841871,51.3390745 165.153963,46.5974982 C171.46714,41.8553821 174.200587,31.6201409 174.200587,31.6201409 C174.200587,31.6201409 166.718357,29.1247543 160.38731,33.8150519" id="Fill-47" fill="#EE8037"></path>
                <path d="M147.964874,48.6926405 C151.881455,45.810774 165.124827,43.4963925 169.056933,39.1357184 C172.989039,34.7754042 174.128306,31.5631945 174.128306,31.5631945 C174.128306,31.5631945 175.869971,38.400363 178.488066,42.3160813 C181.105979,46.2321595 181.200753,52.6545997 172.950227,55.4722328 C164.698798,58.289686 159.130812,55.6973196 155.394391,57.8924106 C151.658151,60.0875015 147.964874,48.6926405 147.964874,48.6926405" id="Fill-49" fill="#EE8037"></path>
                <path d="M147.964874,48.6926405 C151.881455,45.810774 165.124827,43.4963925 169.056933,39.1357184 C172.989039,34.7754042 174.128306,31.5631945 174.128306,31.5631945 C174.128306,31.5631945 175.869971,38.400363 178.488066,42.3160813 C181.105979,46.2321595 181.200753,52.6545997 172.950227,55.4722328 C164.698798,58.289686 159.130812,55.6973196 155.394391,57.8924106 C151.658151,60.0875015 147.964874,48.6926405 147.964874,48.6926405" id="Fill-51" fill="#EE8037"></path>
                <path d="M104.543249,33.165287 C113.023939,42.4915446 115.781937,50.6729364 115.781937,50.6729364 C115.781937,50.6729364 101.890856,49.4471041 97.2935309,44.3084322 C92.6963863,39.1690406 93.1381209,29.1076074 93.1381209,29.1076074 C93.1381209,29.1076074 99.9127083,28.0730359 104.543249,33.165287" id="Fill-53" fill="#EE8037"></path>
                <path d="M104.543249,33.165287 C113.023939,42.4915446 115.781937,50.6729364 115.781937,50.6729364 C115.781937,50.6729364 101.890856,49.4471041 97.2935309,44.3084322 C92.6963863,39.1690406 93.1381209,29.1076074 93.1381209,29.1076074 C93.1381209,29.1076074 99.9127083,28.0730359 104.543249,33.165287" id="Fill-55" fill="#EE8037"></path>
                <path d="M114.860432,49.6891758 C110.868574,41.4410317 101.004192,39.2489995 97.0273168,35.587156 C93.5277391,32.3657701 93.138175,29.1074995 93.138175,29.1074995 C93.138175,29.1074995 91.3187051,34.000753 88.3617732,36.5735075 C85.0026407,39.4949576 87.4185516,45.6392331 90.4040059,49.07545 C95.8423777,55.3337982 102.111507,51.8846266 104.844051,54.5027224 C107.576596,57.120998 114.860432,49.6891758 114.860432,49.6891758" id="Fill-57" fill="#EE8037"></path>
                <path d="M140.420546,18.645876 C132.699487,39.8301228 132.189516,54.2711223 132.189516,54.2711223 C132.189516,54.2711223 150.291427,40.1858355 154.44431,28.5804617 C158.597012,16.9747281 154.09771,2.60479925 154.09771,2.60479925 C154.09771,2.60479925 144.635528,7.08026579 140.420546,18.645876" id="Fill-59" fill="#EE8037"></path>
                <path d="M132.988501,24.2869898 C136.945338,47.2578967 133.60498,61.0450469 133.60498,61.0450469 C133.60498,61.0450469 118.339052,41.8547344 116.246273,29.2937763 C114.153675,16.7324585 120.828073,4.04627229 120.828073,4.04627229 C120.828073,4.04627229 130.828208,11.7463634 132.988501,24.2869898" id="Fill-61" fill="#EE8037"></path>
                <path d="M132.988501,24.2869898 C136.945338,47.2578967 133.60498,61.0450469 133.60498,61.0450469 C133.60498,61.0450469 118.339052,41.8547344 116.246273,29.2937763 C114.153675,16.7324585 120.828073,4.04627229 120.828073,4.04627229 C120.828073,4.04627229 130.828208,11.7463634 132.988501,24.2869898" id="Fill-63" fill="#EE8037"></path>
                <path d="M131.968324,53.9188282 C130.614056,46.1786137 119.149897,26.5865275 119.149897,17.5161239 C119.149897,8.44554038 120.955287,4.09170347 120.955287,4.09170347 C120.955287,4.09170347 112.831125,7.84099075 106.512172,7.84099075 C100.19322,7.84099075 94.1454093,13.4041069 100.012699,26.8285273 C105.880169,40.2525879 114.004691,45.3320643 115.8099,52.2257293 C117.615289,59.1192145 131.968324,53.9188282 131.968324,53.9188282" id="Fill-65" fill="#EE8037"></path>
                <path d="M133.039805,52.014065 C135.175006,36.3821388 147.516316,24.4408441 151.412317,15.5514456 C154.84095,7.73008468 154.097565,2.60490721 154.097565,2.60490721 C154.097565,2.60490721 158.431511,8.17450063 163.384642,9.33232113 C169.012922,10.6477564 168.168807,21.7973789 165.509373,29.4803771 C160.667442,43.4715628 150.943324,43.9571817 148.305373,50.21517 C145.668504,56.4729784 133.039805,52.014065 133.039805,52.014065" id="Fill-67" fill="#EE8037"></path>
                <path d="M133.039805,52.014065 C135.175006,36.3821388 147.516316,24.4408441 151.412317,15.5514456 C154.84095,7.73008468 154.097565,2.60490721 154.097565,2.60490721 C154.097565,2.60490721 158.431511,8.17450063 163.384642,9.33232113 C169.012922,10.6477564 168.168807,21.7973789 165.509373,29.4803771 C160.667442,43.4715628 150.943324,43.9571817 148.305373,50.21517 C145.668504,56.4729784 133.039805,52.014065 133.039805,52.014065" id="Fill-69" fill="#EE8037"></path>
                <polygon id="Fill-71" fill="#FCC840" points="145.465075 162.998222 67.7876646 159.4778 67.7876646 54.3710889 145.465075 47.7705224"></polygon>
                <polygon id="Fill-73" fill="#FCC840" points="199.009264 159.037738 145.465147 162.998258 145.465147 47.7703785 199.009264 54.3711249"></polygon>
                <polygon id="Fill-75" fill="#E3A20A" points="145.465075 50.8507748 67.7871231 55.384897 67.7871231 75.3852341 145.465075 80.3054765 199.009191 77.244764 199.009191 55.384897"></polygon>
                <polygon id="Fill-77" fill="#FCC840" points="145.753836 75.9049669 66.2161582 75.1401036 66.2161582 52.3045007 145.753836 47.7703785"></polygon>
                <polygon id="Fill-79" fill="#FCC840" points="200.580355 75.0445272 145.753818 75.9049309 145.753818 47.7705224 200.580355 52.3044647"></polygon>
                <polygon id="Fill-81" fill="#F7D079" points="199.009264 159.037738 145.465147 162.998258 145.465147 80.3054045 199.009264 77.244692"></polygon>
                <polygon id="Fill-83" fill="#F7D079" points="200.580355 75.0445272 145.753818 75.9049309 145.753818 47.7705224 200.580355 52.3044647"></polygon>
                <polygon id="Fill-85" fill="#EE8037" points="112.083696 161.485535 91.718595 160.562337 91.718595 50.8507928 112.083696 49.6897336"></polygon>
                <polygon id="Fill-87" fill="#D16119" points="112.083696 77.8035766 91.718595 77.0610241 91.718595 75.3853781 112.083696 75.6203607"></polygon>
                <polygon id="Fill-89" fill="#EE8037" points="168.263598 161.311943 183.055118 160.217816 182.650751 50.8508287 168.263598 49.6897696"></polygon>
                <polygon id="Fill-91" fill="#F4A97F" points="168.263598 161.311943 183.055118 160.217816 182.650751 50.8508287 168.263598 49.6897696"></polygon>
                <polygon id="Fill-93" fill="#D16119" points="168.263598 75.5517911 182.741733 75.3243653 182.741733 79.0936243 168.263598 79.5644893"></polygon>
                <line x1="174.200514" y1="55.3328446" x2="196.547013" y2="161.626164" id="Stroke-95" stroke="#323232" stroke-width="0.94248" stroke-linecap="round"></line>
                <line x1="189.66924" y1="57.6308349" x2="213.776359" y2="162.497166" id="Stroke-97" stroke="#323232" stroke-width="0.94248" stroke-linecap="round"></line>
                <line x1="176.251105" y1="64.3179635" x2="191.539779" y2="64.8091601" id="Stroke-99" stroke="#323232" stroke-width="0.5" stroke-linecap="round"></line>
                <line x1="177.729661" y1="71.1176175" x2="193.017794" y2="71.6088141" id="Stroke-101" stroke="#323232" stroke-width="0.5" stroke-linecap="round"></line>
                <line x1="179.207496" y1="77.9174334" x2="194.495808" y2="78.4082702" id="Stroke-103" stroke="#323232" stroke-width="0.5" stroke-linecap="round"></line>
                <line x1="180.68551" y1="84.7169255" x2="195.974365" y2="85.2081221" id="Stroke-105" stroke="#323232" stroke-width="0.5" stroke-linecap="round"></line>
                <line x1="182.163164" y1="91.5165795" x2="197.452379" y2="92.0077761" id="Stroke-107" stroke="#323232" stroke-width="0.5" stroke-linecap="round"></line>
                <line x1="183.641179" y1="98.3164854" x2="198.930214" y2="98.8075021" id="Stroke-109" stroke="#323232" stroke-width="0.5" stroke-linecap="round"></line>
                <line x1="185.120078" y1="105.116139" x2="200.40821" y2="105.607156" id="Stroke-111" stroke="#323232" stroke-width="0.5" stroke-linecap="round"></line>
                <line x1="186.597569" y1="111.915721" x2="201.886243" y2="112.406738" id="Stroke-113" stroke="#323232" stroke-width="0.5" stroke-linecap="round"></line>
                <line x1="188.075584" y1="118.331181" x2="203.363896" y2="118.822377" id="Stroke-115" stroke="#323232" stroke-width="0.5" stroke-linecap="round"></line>
                <line x1="189.797572" y1="124.97331" x2="205.086246" y2="125.464686" id="Stroke-117" stroke="#323232" stroke-width="0.5" stroke-linecap="round"></line>
                <line x1="191.275587" y1="131.388787" x2="206.564261" y2="131.879804" id="Stroke-119" stroke="#323232" stroke-width="0.5" stroke-linecap="round"></line>
                <line x1="192.997251" y1="138.030574" x2="208.285925" y2="138.521771" id="Stroke-121" stroke="#323232" stroke-width="0.5" stroke-linecap="round"></line>
                <line x1="194.475608" y1="144.446213" x2="209.763921" y2="144.93723" id="Stroke-123" stroke="#323232" stroke-width="0.5" stroke-linecap="round"></line>
                <line x1="194.476493" y1="150.320151" x2="210.79558" y2="150.811347" id="Stroke-125" stroke="#323232" stroke-width="0.5" stroke-linecap="round"></line>
                <line x1="196.054119" y1="156.735268" x2="212.373748" y2="157.226824" id="Stroke-127" stroke="#323232" stroke-width="0.5" stroke-linecap="round"></line>
                <path d="M101.912302,114.90961 C103.286788,115.398827 103.861205,115.982145 106.179093,116.325983 C108.496981,116.669641 113.227531,117.114956 114.668449,122.326138 C116.250353,128.046689 124.381555,126.98279 120.996969,132.154028 C119.040845,135.14331 111.452108,134.454915 107.034401,125.938322 C105.323605,122.639748 101.3155,125.058307 100.353143,122.472957 C99.3909668,119.887788 98.2872622,120.932975 98.2872622,120.932975 C98.2872622,120.932975 96.1502561,120.681079 96.915123,118.427513 C97.6801705,116.174666 97.8939072,113.479382 101.912302,114.90961" id="Fill-129" fill="#0F3871"></path>
                <path d="M37.0570906,118.285857 C37.363254,118.693209 37.324442,119.238563 36.9700795,119.503053 C36.6155365,119.767904 36.07957,119.652571 35.7730456,119.24558 L34.5435179,117.610957 C34.2377156,117.203606 34.2761665,116.658791 34.630529,116.393761 C34.9848915,116.128911 35.5208579,116.244423 35.8273824,116.651594 L37.0570906,118.285857 Z" id="Fill-131" fill="#F4AB8E"></path>
                <path d="M36.9752063,118.462436 C37.0290015,118.627968 36.9665413,118.796738 36.8345806,118.84046 C36.7026198,118.883282 36.5513433,118.783963 36.4970065,118.618252 L36.1197179,116.874954 C36.064659,116.709422 36.1280218,116.540292 36.2603436,116.49675 C36.3923044,116.454288 36.5432199,116.553607 36.5975566,116.719498 L36.9752063,118.462436 Z" id="Fill-133" fill="#F4AB8E"></path>
                <polygon id="Fill-135" fill="#F4AB8E" points="119.705595 154.081529 121.375954 154.382364 121.821841 151.924042 120.151481 151.623207"></polygon>
                <polygon id="Fill-137" fill="#F4AB8E" points="109.673111 170.312607 109.762288 167.949106 106.439441 167.824418 106.350624 170.188099"></polygon>
                <mask id="mask-2" fill="white">
                    <use xlink:href="#path-1"></use>
                </mask>
                <g id="Clip-140"></g>
                <polygon id="Fill-139" fill="#F4AB8E" mask="url(#mask-2)" points="98.7942009 124.095687 101.912157 124.095687 101.912157 118.266102 98.7942009 118.266102"></polygon>
                <path d="M99.1115747,115.349581 C99.0003738,115.349581 98.8911587,115.358937 98.7833877,115.373511 L98.7833877,122.051446 C98.8907977,122.055764 98.9947777,122.062241 99.1115747,122.062241 C100.688605,122.062241 101.967415,120.559864 101.967415,118.705911 C101.967415,116.852499 100.688605,115.349581 99.1115747,115.349581" id="Fill-141" fill="#5FA8B8" mask="url(#mask-2)"></path>
                <path d="M97.1385357,118.265994 C97.1385357,120.119946 97.0298621,121.622144 99.9945564,121.622144 C101.571767,121.622144 102.850577,120.119946 102.850577,118.265994 C102.850577,116.412221 101.571767,114.909664 99.9945564,114.909664 C98.4173456,114.909664 97.1385357,116.412221 97.1385357,118.265994" id="Fill-142" fill="#F4AB8E" mask="url(#mask-2)"></path>
                <path d="M112.382856,116.641392 C112.076873,117.048564 112.115685,117.593918 112.469867,117.858588 C112.82441,118.123259 113.360376,118.008106 113.66672,117.600755 L114.896609,115.966492 C115.202231,115.558961 115.16378,115.014146 114.809417,114.749116 C114.455055,114.484266 113.919088,114.599778 113.612564,115.007129 L112.382856,116.641392 Z" id="Fill-143" fill="#F4AB8E" mask="url(#mask-2)"></path>
                <path d="M112.46483,116.817809 C112.410854,116.983341 112.473495,117.152291 112.605275,117.195833 C112.737417,117.238655 112.888693,117.139336 112.942849,116.973805 L113.320138,115.230327 C113.375377,115.064975 113.312015,114.895665 113.179693,114.852123 C113.047732,114.809661 112.896997,114.90898 112.84248,115.074871 L112.46483,116.817809 Z" id="Fill-144" fill="#F4AB8E" mask="url(#mask-2)"></path>
                <path d="M88.2718557,121.078211 C88.3724059,121.576964 88.1025272,122.052867 87.6676524,122.139411 C87.2340412,122.227215 86.7998885,121.893273 86.6984358,121.39452 L86.2933469,119.391949 C86.1927968,118.893376 86.4628561,118.417653 86.8968282,118.330569 C87.3306199,118.242765 87.7651336,118.577067 87.8665864,119.07546 L88.2718557,121.078211 Z" id="Fill-145" fill="#F4AB8E" mask="url(#mask-2)"></path>
                <path d="M88.1213013,121.202252 C88.0989167,121.37498 87.9694833,121.500928 87.8317458,121.483295 C87.6941889,121.465842 87.6004986,121.311466 87.6225222,121.138378 L88.0339292,119.402637 C88.0554112,119.229369 88.1855668,119.103961 88.3240263,119.121233 C88.4615832,119.139586 88.555093,119.293962 88.5321668,119.46705 L88.1213013,121.202252 Z" id="Fill-146" fill="#F4AB8E" mask="url(#mask-2)"></path>
                <path d="M106.719013,143.438343 C106.719013,143.438343 106.923182,146.768943 106.849891,148.211046 C106.786528,149.643793 107.048825,151.370898 107.302096,153.004261 C107.54273,154.631687 108.081765,156.200278 108.858727,157.011921 C109.246486,157.420712 109.705731,157.710752 110.350552,157.871425 L110.592991,157.9326 L110.62368,157.940697 C110.567177,157.940697 110.760334,157.942676 110.49912,157.941416 L110.511757,157.942316 L110.536308,157.944115 L110.634872,157.950953 L110.83182,157.964627 C111.094117,157.983159 111.35515,158.001152 111.614559,158.019324 L112.002498,158.046313 C112.073262,158.05333 112.125433,158.05279 112.166953,158.048832 L112.305593,158.043434 C112.492793,158.039476 112.67891,158.035697 112.863222,158.032099 L113.144473,158.032099 L113.437098,157.988737 C113.633865,157.961748 113.829008,157.934579 114.022166,157.90795 C114.224169,157.895535 114.390248,157.819427 114.57456,157.778044 C114.753636,157.727845 114.937226,157.687002 115.112331,157.633744 C115.77737,157.369973 116.415692,157.085511 116.916276,156.684097 C117.446827,156.317049 117.854985,155.868495 118.21025,155.456825 C118.540423,155.026084 118.814273,154.622151 118.994252,154.266978 C119.189576,153.916123 119.303123,153.625724 119.380567,153.435363 C119.414324,153.343421 119.440319,153.27325 119.457649,153.225569 C119.469564,153.198041 119.475521,153.183827 119.475521,153.183827 L121.968153,153.588659 C121.968153,153.588659 121.961293,153.640298 121.947935,153.739617 C121.935118,153.816985 121.919593,153.941853 121.89089,154.086873 C121.833485,154.378532 121.74864,154.799738 121.578047,155.311985 C121.420814,155.83143 121.164113,156.437779 120.811736,157.119337 C120.432823,157.782542 119.959858,158.531932 119.281641,159.230403 C118.634294,159.962519 117.770862,160.598016 116.805076,161.185113 C116.558665,161.317358 116.301603,161.43521 116.042194,161.561697 C115.7808,161.677569 115.518864,161.831405 115.242848,161.910933 C114.966651,162.004314 114.687566,162.098235 114.405412,162.193236 L113.976133,162.333398 L113.512375,162.431817 C113.197907,162.493171 112.880732,162.555606 112.56103,162.6184 C112.411378,162.643589 112.214069,162.687851 112.10016,162.695588 L111.713665,162.73733 C111.455159,162.765219 111.195389,162.793107 110.933995,162.821535 L110.737949,162.842587 L110.639566,162.853202 L110.614834,162.855901 L110.602739,162.857161 L110.45381,162.856801 L110.386114,162.855541 L109.840941,162.843486 C108.38504,162.807321 106.75963,162.320443 105.445619,161.418476 C104.11518,160.526406 103.159503,159.338898 102.436336,158.182876 C101.714252,157.01588 101.212946,155.844385 100.818147,154.72201 C100.03595,152.471322 99.6817679,150.405237 99.4353569,148.638549 C99.2059149,146.87366 99.1208896,145.409247 99.086049,144.369277 C99.0679969,143.850012 99.0656502,143.433845 99.0656502,143.142185 C99.0710658,142.831274 99.0737736,142.665383 99.0737736,142.665383 L106.719013,143.438343 Z" id="Fill-147" fill="#5E92D8" mask="url(#mask-2)"></path>
                <path d="M101.263365,144.16508 C101.263365,144.16508 101.228705,144.256662 101.163898,144.42903 C101.097647,144.615073 100.996375,144.898636 100.877412,145.273781 C100.6375,146.019932 100.310396,147.115498 100.005315,148.449106 C99.8525948,149.11573 99.6998742,149.841009 99.5717043,150.609291 C99.4372163,151.378652 99.3308895,152.189037 99.2465862,153.02623 C99.1774467,153.859825 99.1124592,154.726166 99.1263593,155.58693 C99.1205827,156.453811 99.184126,157.315474 99.2893697,158.161483 C99.3594118,158.575312 99.4063472,159.004254 99.5103272,159.40099 C99.5576237,159.601607 99.5958941,159.808161 99.6486062,160.00554 L99.823892,160.58436 C99.8757015,160.781918 99.9435773,160.967781 100.019757,161.146447 C100.090882,161.329791 100.161647,161.512056 100.23205,161.693601 C100.407877,162.028262 100.554099,162.385774 100.749784,162.694346 C100.948898,162.9995 101.122198,163.325165 101.354167,163.586417 C101.462299,163.725679 101.568987,163.863502 101.674411,164.000245 C101.794458,164.122775 101.913421,164.244404 102.030399,164.363875 C102.150084,164.482086 102.258938,164.610013 102.381692,164.718688 C102.510223,164.822505 102.636768,164.924163 102.761328,165.024381 C102.887151,165.12406 103.004489,165.231475 103.130854,165.323057 C103.263898,165.407263 103.394414,165.489848 103.522584,165.570995 C103.776577,165.736526 104.019739,165.901878 104.283119,166.013252 C104.538917,166.13902 104.781717,166.25849 105.009896,166.370764 C105.500912,166.539534 105.918096,166.720899 106.285637,166.823636 C107.031549,167.017416 107.457759,167.12825 107.457759,167.12825 L106.942191,170.667564 C106.942191,170.667564 106.396838,170.592355 105.441882,170.46083 C104.963502,170.383642 104.383849,170.221889 103.714658,170.064634 C103.384486,169.957758 103.034275,169.829651 102.663485,169.698485 C102.288363,169.580814 101.911435,169.39729 101.516817,169.202971 C101.319327,169.106351 101.117685,169.007931 100.912072,168.907533 C100.711513,168.796159 100.515287,168.664634 100.311298,168.538686 C100.108573,168.409859 99.9022381,168.278334 99.6930144,168.144469 C99.4892063,168.002868 99.296771,167.837696 99.0944071,167.679182 C98.8951121,167.517249 98.6880547,167.356575 98.4883986,167.183487 C98.3011984,166.997084 98.1116515,166.809062 97.9201189,166.618701 C97.5206262,166.246615 97.1922587,165.808137 96.8375352,165.371997 C96.6528623,165.157166 96.5086261,164.920024 96.3510314,164.685761 C96.1970471,164.449699 96.0360225,164.213097 95.8869122,163.969658 C95.7524242,163.721361 95.6175751,163.471264 95.4814624,163.219908 C95.3410171,162.968193 95.2130278,162.711979 95.1054374,162.449827 C94.9913482,162.188576 94.8770785,161.925524 94.7624477,161.662114 C94.6566625,161.396903 94.5692904,161.128814 94.4725312,160.860186 C94.2683621,160.322208 94.1351377,159.779013 93.9793481,159.233299 C93.7080253,158.143311 93.5015094,157.047205 93.3805604,155.975569 C93.2397541,154.899794 93.1928187,153.852088 93.1601444,152.837848 C93.1426339,151.827746 93.1574366,150.85399 93.2090656,149.937629 C93.2540153,149.019649 93.3321808,148.158526 93.4191919,147.365234 C93.5924919,145.778292 93.8213924,144.468794 94.0037185,143.541998 C94.0934373,143.079229 94.176838,142.710022 94.2364099,142.451469 C94.3028416,142.180142 94.3382236,142.035302 94.3382236,142.035302 L101.263365,144.16508 Z" id="Fill-148" fill="#5E92D8" mask="url(#mask-2)"></path>
                <path d="M93.3879798,144.01907 L107.955292,143.786966 C107.955292,143.786966 105.862694,136.953216 105.389008,134.339619 C104.86983,131.473226 103.881478,122.785884 103.881478,122.785884 L96.7523474,122.573752 C96.7523474,122.573752 95.5934033,133.091836 95.482744,135.880321 C95.3755146,138.589639 93.3879798,144.01907 93.3879798,144.01907" id="Fill-149" fill="#0F3871" mask="url(#mask-2)"></path>
                <path d="M100.493336,125.135675 C100.493336,125.135675 100.443512,125.203147 100.34928,125.329454 C100.257575,125.448925 100.125976,125.619854 99.9526756,125.827668 C99.6071586,126.244735 99.1018807,126.820677 98.4159014,127.459232 C98.075078,127.77932 97.6838892,128.112542 97.2381832,128.441985 C96.7993369,128.775207 96.2841304,129.092236 95.7079077,129.375259 C95.1349345,129.659541 94.4563565,129.887147 93.7073754,129.970092 C92.9618242,130.054478 92.1339554,129.961456 91.4097057,129.655223 C90.6953846,129.340533 90.0960553,128.885142 89.6292283,128.390886 C89.388955,128.146368 89.2037406,127.883317 88.9966832,127.63286 C88.8278961,127.371609 88.6609143,127.113236 88.4966403,126.859361 C88.3607081,126.600268 88.2269421,126.345494 88.0960645,126.095757 C87.9660895,125.84638 87.8752875,125.596824 87.7680581,125.357343 C87.5476421,124.878201 87.416945,124.416692 87.2607944,123.995487 C87.1192661,123.572662 87.0203406,123.182583 86.9174437,122.838746 C86.8109364,122.494908 86.7558775,122.192094 86.6925147,121.944516 C86.5758982,121.449001 86.5091055,121.165799 86.5091055,121.165799 L88.4152254,120.699972 C88.4152254,120.699972 88.5157755,120.955646 88.6925055,121.402581 C88.7845711,121.623349 88.8768173,121.901334 89.0197898,122.198031 C89.159874,122.495808 89.3021245,122.840905 89.4830064,123.196258 C89.6749001,123.541355 89.8519911,123.94043 90.0953332,124.303339 C90.214477,124.486323 90.3224285,124.689279 90.4554724,124.866686 C90.5858084,125.042833 90.7192134,125.222938 90.8547845,125.406462 C90.9986597,125.564617 91.1447011,125.72529 91.2921866,125.888123 C91.4505034,126.012811 91.5967253,126.169167 91.7516122,126.271904 C92.0584977,126.496631 92.3572598,126.604046 92.592659,126.645789 C92.830766,126.6681 93.0204935,126.617361 93.2488524,126.530097 C93.4745035,126.438155 93.7358977,126.299792 94.0106505,126.084062 C94.2828759,125.872649 94.5567261,125.638027 94.8118021,125.361301 C95.0670586,125.094112 95.3046241,124.814688 95.5154725,124.538862 C95.9393355,123.991348 96.2621068,123.48162 96.4671785,123.129325 C96.5718806,122.952998 96.6448111,122.815535 96.6901218,122.728272 C96.7173805,122.678972 96.7155753,122.669796 96.7255039,122.650364 C96.7395845,122.623375 96.7468054,122.609341 96.7468054,122.609341 L100.493336,125.135675 Z" id="Fill-150" fill="#0F3871" mask="url(#mask-2)"></path>
                <path d="M108.954548,125.763471 C109.065387,125.682684 109.177852,125.598119 109.300787,125.492323 L109.473184,125.344604 L109.593953,125.230171 C110.021245,124.812924 110.342934,124.398736 110.626712,123.999841 C110.91699,123.597708 111.17676,123.199712 111.42281,122.805316 C111.671748,122.411639 111.90119,122.023539 112.120884,121.646596 C112.559188,120.893787 112.946767,120.18686 113.271704,119.578172 C113.281272,119.56036 113.289215,119.544706 113.298602,119.527433 C112.71913,118.7874 112.04001,118.23143 111.32262,117.807885 C111.218279,117.938691 111.109064,118.075255 110.992628,118.219555 C110.582304,118.751055 110.096884,119.364601 109.567597,119.997399 C109.30187,120.311908 109.040837,120.64549 108.763737,120.96036 C108.490609,121.279727 108.207552,121.594237 107.931355,121.869523 C107.791632,122.019941 107.65913,122.129336 107.528433,122.250965 C107.459293,122.320416 107.408747,122.341828 107.351703,122.387529 L107.270288,122.448523 L107.25007,122.463637 L107.245015,122.467416 C107.234725,122.476772 107.328957,122.390048 107.286896,122.428372 L107.282744,122.43179 L107.266316,122.444745 L107.201329,122.496743 L107.070993,122.60074 C107.036513,122.62521 107.029473,122.622152 107.008172,122.635466 L106.871156,122.712474 C106.764468,122.773829 106.652545,122.822768 106.54333,122.870089 C106.09618,123.038139 105.626284,123.120365 105.187438,123.141776 C104.750577,123.153292 104.359389,123.123604 104.104493,123.08528 C103.849778,123.045876 103.728107,123.020507 103.807536,123.040658 L103.71854,123.970693 C104.963051,124.111035 106.243846,124.414209 107.034347,125.938358 C107.152227,126.165604 107.273357,126.384393 107.395389,126.600124 C107.764554,126.449526 108.072523,126.312783 108.260986,126.208786 C108.495844,126.074922 108.730702,125.929902 108.954548,125.763471" id="Fill-151" fill="#0F3871" mask="url(#mask-2)"></path>
                <path d="M109.016954,126.275664 C109.128877,126.18966 109.242605,126.099517 109.366803,125.987064 L109.541367,125.829629 L109.663399,125.708179 C110.095385,125.263764 110.420684,124.822946 110.707351,124.398682 C111.001059,123.970279 111.263536,123.546915 111.512294,123.127148 C111.76394,122.708102 111.99627,122.295173 112.21813,121.893759 C112.661309,121.092191 113.05322,120.339923 113.381948,119.692011 C113.391336,119.673299 113.399459,119.656566 113.409027,119.638033 C112.823056,118.85014 112.136174,118.258545 111.411202,117.807831 C111.305778,117.947094 111.195299,118.092473 111.077599,118.24595 C110.662582,118.811995 110.171746,119.464765 109.636682,120.138406 C109.367886,120.473068 109.103965,120.828061 108.823977,121.163262 C108.54778,121.503141 108.261654,121.837982 107.982389,122.131441 C107.84086,122.291215 107.706914,122.407267 107.574953,122.537173 C107.505091,122.610942 107.454184,122.633793 107.396237,122.682193 L107.313739,122.747326 L107.29334,122.763159 L107.288466,122.767477 C107.277996,122.777733 107.373131,122.684892 107.330528,122.725735 L107.326556,122.729693 L107.309948,122.743367 L107.244239,122.798425 L107.112458,122.909259 C107.077618,122.935528 107.070397,122.931929 107.048915,122.946143 L106.910456,123.028189 C106.802324,123.093502 106.689318,123.145681 106.578839,123.19588 C106.126814,123.375086 105.651684,123.46217 105.207963,123.48502 C104.766409,123.497615 104.370888,123.465768 104.113104,123.425285 C103.855501,123.383182 103.732747,123.356014 103.813078,123.377785 L103.722998,124.367375 C104.981048,124.516893 106.510782,124.787861 107.309948,126.410249 C107.428912,126.652248 107.551846,126.885252 107.674961,127.114657 C108.048279,126.954163 108.125361,126.860242 108.31545,126.749768 C108.553015,126.607627 108.790219,126.452711 109.016954,126.275664" id="Fill-152" fill="#5FA8B8" mask="url(#mask-2)"></path>
                <path d="M114.053378,117.490245 C114.053558,117.490245 113.654968,118.288214 113.022243,119.454851 C112.705609,120.039429 112.327598,120.718288 111.900486,121.441768 C111.686208,121.803599 111.462362,122.176584 111.219742,122.554607 C110.98001,122.933351 110.726559,123.315692 110.443502,123.701992 C110.167305,124.084874 109.853199,124.482869 109.436917,124.883923 L109.319037,124.993318 L109.150972,125.135639 C109.031107,125.237117 108.92135,125.318443 108.813398,125.395991 C108.594968,125.555945 108.366248,125.695207 108.137348,125.823674 C107.210373,126.327285 103.378456,127.616451 103.327188,127.602237 L103.79564,122.780774 C103.718016,122.761342 103.836438,122.785992 104.085015,122.823776 C104.333412,122.860301 104.714852,122.889089 105.140701,122.877754 C105.568716,122.857242 106.026698,122.778255 106.462656,122.617042 C106.569163,122.571341 106.678378,122.52456 106.782538,122.465185 L106.915763,122.391415 C106.936523,122.37846 106.943383,122.381519 106.97714,122.357949 L107.104046,122.25827 L107.16759,122.208431 L107.183475,122.195836 L107.187447,122.192417 C107.228425,122.155893 107.13672,122.239378 107.146649,122.230382 L107.151704,122.226243 L107.17138,122.21167 L107.25081,122.153374 C107.30641,122.109472 107.355512,122.08896 107.423027,122.022208 C107.550655,121.905436 107.679547,121.80054 107.81584,121.65606 C108.084997,121.391389 108.361194,121.089294 108.627281,120.782521 C108.897341,120.479887 109.152056,120.159799 109.411103,119.857524 C109.927032,119.249556 110.400357,118.66048 110.800211,118.149852 C111.626455,117.14011 112.156464,116.454234 112.156645,116.454234 L114.053378,117.490245 Z" id="Fill-153" fill="#0F3871" mask="url(#mask-2)"></path>
                <path d="M99.5565406,116.133427 C99.5565406,116.133427 100.612046,117.387687 101.166065,118.952679 C101.418974,119.667883 100.646345,120.039069 101.995197,121.565377 C105.563734,121.565377 103.319679,116.449736 103.319679,116.449736 C103.319679,116.449736 102.906647,114.607119 99.7258692,114.607119 C96.5452719,114.607119 96.490213,118.210127 97.1384635,118.856419 C97.1384635,118.856419 96.7454695,116.133427 99.5565406,116.133427" id="Fill-154" fill="#0F3871" mask="url(#mask-2)"></path>
                <path d="M98.7942551,122.63973 C98.7942551,122.958918 99.4921488,123.217291 100.353233,123.217291 C101.214137,123.217291 101.912212,122.958918 101.912212,122.63973 C101.912212,122.320902 101.214137,122.062169 100.353233,122.062169 C99.4921488,122.062169 98.7942551,122.320902 98.7942551,122.63973" id="Fill-155" fill="#F4AB8E" mask="url(#mask-2)"></path>
                <path d="M119.762188,151.764125 L120.352672,148.623525 C120.352672,148.623525 122.977987,149.107885 123.085938,149.127677 C124.596176,149.402603 125.764688,149.934283 125.694826,150.315365 C125.624062,150.696087 124.343627,150.782091 122.832848,150.507165 C122.72273,150.487373 122.615501,150.465782 122.509535,150.443112 L122.176113,152.214838 L119.762188,151.764125 Z" id="Fill-156" fill="#0F3871" mask="url(#mask-2)"></path>
                <path d="M110.722569,170.905623 C110.728526,170.782734 110.737191,170.662364 110.746759,170.543793 L108.75435,170.432419 L108.905987,167.736056 L112.415674,167.932355 C112.415674,167.932355 112.286241,170.72084 112.272521,170.98551 C112.185149,172.671772 111.767604,174.021573 111.339409,173.999622 C110.911394,173.977311 110.634655,172.592425 110.722569,170.905623" id="Fill-157" fill="#0F3871" mask="url(#mask-2)"></path>
                <path d="M100.491585,118.257735 C100.228566,118.827199 100.390132,119.469713 100.852807,119.69336 C101.315482,119.916108 101.905424,119.635065 102.168623,119.065061 C102.432545,118.495417 102.270979,117.853262 101.808123,117.630155 C101.344726,117.406867 100.755687,117.688271 100.491585,118.257735" id="Fill-158" fill="#5FA8B8" mask="url(#mask-2)"></path>
                <path d="M100.116083,118.174807 C99.8499953,118.737794 100.006687,119.370052 100.466113,119.587042 C100.925719,119.803133 101.515661,119.522089 101.78211,118.958563 C102.04892,118.395756 101.892589,117.764037 101.432802,117.547587 C100.972294,117.330777 100.383435,117.61182 100.116083,118.174807" id="Fill-159" fill="#F4AB8E" mask="url(#mask-2)"></path>
                <polygon id="Fill-160" fill="#F4AB8E" mask="url(#mask-2)" points="191.975827 105.613058 190.343919 106.092019 191.053727 108.493305 192.684733 108.014703"></polygon>
                <polygon id="Fill-161" fill="#F4AB8E" mask="url(#mask-2)" points="202.769351 115.633882 204.545676 115.219333 203.962774 112.738521 202.187171 113.152529"></polygon>
                <path d="M205.772262,87.2325357 C205.697706,86.794777 205.946103,86.3868859 206.327724,86.3226525 C206.708443,86.2578793 207.077789,86.560514 207.152885,86.9979129 L207.453814,88.7557849 C207.527647,89.1937235 207.280152,89.6014346 206.898531,89.665848 C206.517813,89.7308011 206.148648,89.4283463 206.072829,88.9900478 L205.772262,87.2325357 Z" id="Fill-162" fill="#F4AB8E" mask="url(#mask-2)"></path>
                <path d="M205.906425,87.1283408 C205.930614,86.978283 206.04687,86.8717671 206.166736,86.8910191 C206.286602,86.9097314 206.364226,87.0470145 206.339314,87.1970724 L205.935308,88.7005297 C205.912382,88.8514872 205.795224,88.9569236 205.675358,88.9383912 C205.555492,88.9191392 205.478771,88.7816761 205.503322,88.6314384 L205.906425,87.1283408 Z" id="Fill-163" fill="#F4AB8E" mask="url(#mask-2)"></path>
                <path d="M184.845776,65.9046904 C184.891087,66.3467673 184.615612,66.7366658 184.2302,66.7746301 C183.84551,66.8133141 183.497466,66.4862095 183.452336,66.0443125 L183.273439,64.2704272 C183.229392,63.8287101 183.504867,63.4386317 183.889918,63.3997678 C184.274067,63.3616235 184.623014,63.6887281 184.667783,64.1309849 L184.845776,65.9046904 Z" id="Fill-164" fill="#F4AB8E" mask="url(#mask-2)"></path>
                <path d="M184.704735,65.9994931 C184.670797,66.1475718 184.54696,66.2454512 184.428899,66.2186423 C184.311019,66.1918335 184.242963,66.0496923 184.277081,65.9014337 L184.783984,64.4291035 C184.818283,64.280485 184.94194,64.1826055 185.060542,64.2094144 C185.178603,64.2374828 185.247201,64.379624 185.21236,64.5278826 L184.704735,65.9994931 Z" id="Fill-165" fill="#F4AB8E" mask="url(#mask-2)"></path>
                <path d="M201.95401,85.1904534 C201.95401,85.1904534 201.944082,85.2975091 201.92603,85.498126 C201.910505,85.7037808 201.887759,86.0055159 201.858334,86.3894768 C201.806164,87.1703535 201.742801,88.2997457 201.705253,89.6587229 C201.690089,90.3381216 201.675106,91.0750963 201.675467,91.853454 C201.676369,92.6314518 201.681063,93.454251 201.71121,94.2997209 C201.733233,95.1482495 201.779447,96.0205283 201.841004,96.9039624 C201.900215,97.7890159 201.989754,98.6789273 202.093011,99.5673994 C202.153305,100.008217 202.21396,100.449574 202.274254,100.888592 C202.350254,101.322033 202.425711,101.753674 202.500628,102.181897 C202.675733,103.100956 202.848311,104.005082 203.014751,104.880059 C203.182455,105.742802 203.337522,106.584673 203.469122,107.399016 C203.605235,108.206162 203.734307,108.969586 203.853271,109.673814 C203.976205,110.378402 204.065744,111.017677 204.157268,111.587321 C204.245542,112.155706 204.322805,112.651581 204.386168,113.059832 C204.507659,113.878493 204.577159,114.346659 204.577159,114.346659 L202.430044,114.842893 C202.430044,114.842893 202.282558,114.399197 202.025316,113.622818 C201.893175,113.234899 201.733233,112.763494 201.550005,112.222818 C201.364068,111.684481 201.164954,111.067877 200.928652,110.413488 C200.696321,109.756939 200.445036,109.045874 200.178588,108.293785 C199.920262,107.544936 199.625111,106.749665 199.30938,105.923087 C199.000689,105.106405 198.681528,104.262915 198.357674,103.40557 C198.187081,102.944781 198.015045,102.480213 197.842286,102.013846 C197.687761,101.54496 197.533054,101.073915 197.378167,100.60305 C197.088973,99.6591614 196.815123,98.7107741 196.578099,97.7748017 C196.338367,96.8388294 196.118312,95.9147321 195.93039,95.0188831 C195.7329,94.1226742 195.568987,93.2552535 195.41735,92.430475 C195.265892,91.6058765 195.138806,90.8244601 195.023633,90.1018794 C194.799968,88.656538 194.647247,87.4449197 194.548864,86.587035 C194.502831,86.1514354 194.466546,85.8092171 194.441634,85.5760337 C194.419611,85.3374525 194.407877,85.2102452 194.407877,85.2102452 L201.95401,85.1904534 Z" id="Fill-166" fill="#FBC900" mask="url(#mask-2)"></path>
                <path d="M205.658913,87.5791262 C205.658913,87.5791262 205.39463,86.3585117 204.950188,84.5349669 C204.727244,83.624364 204.459171,82.564243 204.147231,81.4442069 C203.991802,80.8844587 203.822654,80.3112161 203.641592,79.7399527 C203.546818,79.4598087 203.457099,79.1679695 203.35348,78.898801 C203.301851,78.7651164 203.255277,78.6168578 203.199677,78.4961278 L203.119886,78.3070261 L203.080172,78.2122054 L203.060315,78.1650649 C203.053455,78.1492314 203.112846,78.2802172 203.08631,78.2217414 L203.082699,78.2152641 L203.075839,78.2021295 L203.061578,78.1762203 C202.889181,77.8415589 202.824554,77.7802043 202.636632,77.4835071 C202.465859,77.2317914 202.295448,76.9813351 202.127022,76.732858 C201.77302,76.2328451 201.424254,75.7411087 201.087041,75.2650259 C200.392397,74.3162788 199.744688,73.4308655 199.189044,72.6719398 C198.062053,71.1630847 197.310905,70.1573012 197.310905,70.1573012 L200.029008,68.175242 C200.029008,68.175242 200.21693,68.4314559 200.545839,68.8792905 C200.870235,69.3291042 201.347713,69.9602828 201.889817,70.7415193 C202.430838,71.5240152 203.074215,72.427601 203.73113,73.427267 C204.058053,73.9330375 204.396169,74.4557211 204.7397,74.9866812 C204.910834,75.2634066 205.083412,75.5421111 205.256531,75.8220752 C205.391742,76.0387055 205.726608,76.6177057 205.809828,76.8230007 L205.87969,76.9734184 L205.901352,77.0412503 L205.943413,77.1769141 L206.027175,77.447522 C206.088011,77.6330252 206.119421,77.7913596 206.165093,77.9626487 C206.256256,78.3034276 206.317272,78.6224355 206.3893,78.9461214 C206.518733,79.5852167 206.629934,80.2054199 206.727777,80.8025926 C206.923461,81.996758 207.076723,83.1031198 207.200741,84.0515071 C207.330175,84.9986348 207.381804,85.7966044 207.437765,86.3511347 C207.485784,86.9083639 207.513042,87.2268321 207.513042,87.2268321 L205.658913,87.5791262 Z" id="Fill-167" fill="#5E92D8" mask="url(#mask-2)"></path>
                <polygon id="Fill-168" fill="#F4AB8E" mask="url(#mask-2)" points="193.828098 68.7989537 196.547103 68.677504 196.35864 64.4870395 193.639995 64.6083092"></polygon>
                <path d="M196.610304,88.1233828 C196.616802,88.1169054 196.57799,88.1532504 196.57799,88.1505515 C196.573297,88.1534303 196.570589,88.1532504 196.560841,88.1606273 C196.544775,88.1746615 196.526722,88.1906749 196.505963,88.2090273 C196.42184,88.2847759 196.284283,88.4134226 196.109358,88.5967667 C195.757343,88.9584169 195.2573,89.5327391 194.718806,90.2808693 C194.456148,90.6588927 194.171286,91.073441 193.906462,91.5344101 C193.634959,91.9917807 193.372301,92.4890948 193.130583,93.0180757 C192.88002,93.5447176 192.66863,94.1077044 192.46735,94.6874243 C192.28033,95.2700231 192.108294,95.8718738 191.987525,96.4861394 C191.921815,96.7929124 191.86459,97.1018444 191.825417,97.4122159 C191.772344,97.7222275 191.746169,98.0334986 191.718368,98.3435102 C191.662768,98.9638933 191.651034,99.5812176 191.667462,100.181629 C191.688221,100.781501 191.730102,101.366078 191.810254,101.91845 C191.841303,102.196075 191.880657,102.465783 191.934994,102.724876 C191.986261,102.984328 192.02381,103.238203 192.080493,103.478404 C192.203428,103.956466 192.292244,104.4043 192.422039,104.789161 C192.543349,105.175821 192.633429,105.520198 192.742463,105.793145 C192.943744,106.346416 193.058375,106.662725 193.058375,106.662725 L190.235931,108.014685 C190.235931,108.014685 190.056313,107.676245 189.741484,107.08411 C189.575947,106.791192 189.415283,106.414068 189.213822,105.988004 C189.004779,105.565179 188.824077,105.061748 188.603661,104.519632 C188.497696,104.246685 188.408879,103.953947 188.305441,103.653831 C188.199295,103.354795 188.106326,103.039565 188.02094,102.711561 C187.831935,102.060231 187.678492,101.356902 187.549239,100.620467 C187.424138,99.8834925 187.330087,99.1105326 187.287845,98.3186805 C187.267085,97.9226645 187.246866,97.5219705 187.256434,97.1191173 C187.25156,96.7155444 187.267987,96.3107121 187.295065,95.90534 C187.340015,95.0940559 187.448689,94.2860106 187.586246,93.4945184 C187.737703,92.7066247 187.912988,91.9316856 188.139362,91.199029 C188.357611,90.4633137 188.608535,89.7634036 188.878775,89.1124332 C189.142336,88.4575044 189.436404,87.8574529 189.716211,87.3054415 C190.289546,86.2077161 190.855298,85.3307593 191.297935,84.7186528 C191.517088,84.4122397 191.706815,84.1707797 191.848705,83.9967917 C191.884809,83.9530698 191.916761,83.9143859 191.944381,83.8807398 C191.981748,83.8384573 192.01334,83.8024722 192.038793,83.7736841 C192.078147,83.7290626 192.097823,83.7058522 192.097823,83.7058522 L196.610304,88.1233828 Z" id="Fill-169" fill="#FBC900" mask="url(#mask-2)"></path>
                <path d="M193.280542,70.5761677 C193.280542,70.5761677 193.237939,70.6569543 193.15851,70.8082716 C193.079622,70.9500529 192.964089,71.1578668 192.816603,71.4228971 C192.517119,71.9452208 192.078995,72.6805762 191.48815,73.5355821 C190.889723,74.3869895 190.166737,75.3704622 189.131992,76.3226279 C188.603427,76.7889948 188.003736,77.2726345 187.141749,77.590023 C186.703986,77.7425998 186.219468,77.8431782 185.63097,77.7695887 C185.108001,77.6877226 184.779453,77.4351072 184.539721,77.1884293 C184.313709,76.9428311 184.179221,76.7051495 184.077588,76.4910382 C183.879556,76.0602965 183.785505,75.6811935 183.706798,75.3143255 C183.630799,74.9487169 183.580794,74.598402 183.540719,74.255464 C183.462553,73.5710274 183.424644,72.9162786 183.398107,72.2870792 C183.3472,71.0304796 183.339438,69.8780568 183.325177,68.8933247 C183.304778,66.9252997 183.248816,65.6359537 183.248816,65.6359537 L184.957808,65.5211612 C184.957627,65.5211612 185.157103,66.8486514 185.38853,68.8159567 C185.508396,69.7976302 185.639996,70.9414165 185.818892,72.128025 C185.909514,72.71962 186.012952,73.3238098 186.146176,73.895613 C186.212608,74.1802551 186.599645,74.3268944 186.898226,73.9717215 C187.515247,73.2471616 188.05699,72.3442955 188.477965,71.5635988 C188.901286,70.7749854 189.2181,70.0799332 189.427143,69.597553 C189.527332,69.3577123 189.605859,69.1691504 189.659113,69.0406836 C189.702799,68.9260711 189.725725,68.8647165 189.725725,68.8647165 L193.280542,70.5761677 Z" id="Fill-170" fill="#5E92D8" mask="url(#mask-2)"></path>
                <path d="M188.918074,86.5213622 L202.677556,85.9069167 C202.677556,85.9069167 201.761593,80.7068902 201.496228,78.1960301 C201.235736,75.7346494 200.144126,68.1398147 200.144126,68.1398147 L189.742874,68.7920446 C189.742874,68.7920446 189.687274,76.4095499 189.697564,78.7809678 C189.707492,81.0847337 188.918074,86.5213622 188.918074,86.5213622" id="Fill-171" fill="#5E92D8" mask="url(#mask-2)"></path>
                <path d="M192.9701,107.713814 L193.856458,110.791259 C193.856458,110.791259 191.287285,111.532912 191.18168,111.563499 C189.704839,111.993521 188.418447,112.040842 188.310134,111.668036 C188.2011,111.29577 189.309678,110.64498 190.787061,110.214598 C190.893569,110.183291 191.000076,110.154863 191.104959,110.126974 L190.604735,108.391413 L192.9701,107.713814 Z" id="Fill-172" fill="#0F3871" mask="url(#mask-2)"></path>
                <path d="M202.345903,116.748754 C202.447356,116.726803 202.548087,116.707191 202.647734,116.687939 L202.293372,115.041621 L204.536705,114.562299 L205.160224,117.461799 C205.160224,117.461799 202.84739,117.980524 202.627155,118.028384 C201.225771,118.334437 200.026751,118.296293 199.948766,117.943099 C199.872045,117.590085 200.944159,117.054447 202.345903,116.748754" id="Fill-173" fill="#0F3871" mask="url(#mask-2)"></path>
                <path d="M192.274625,64.277984 C191.935246,65.8600688 191.989222,67.2125687 194.097164,67.6618427 C195.44403,67.9488238 196.809851,66.8985988 197.149231,65.3168738 C197.488971,63.734789 196.672836,62.2198164 195.326692,61.9331951 C193.980728,61.646034 192.614366,62.6958993 192.274625,64.277984" id="Fill-174" fill="#F4AB8E" mask="url(#mask-2)"></path>
                <path d="M197.219038,62.380238 C197.04971,63.1711904 195.856647,63.5871781 194.553647,63.3095531 C193.25155,63.032108 192.333782,62.1663066 192.503652,61.3755341 C192.672439,60.5845816 193.866043,60.1682341 195.168501,60.446039 C196.47096,60.723844 197.388367,61.5898253 197.219038,62.380238" id="Fill-175" fill="#0F3871" mask="url(#mask-2)"></path>
                <path d="M196.50506,61.8177909 C196.50506,61.8177909 198.260806,62.203911 198.051582,63.4840808 C197.840373,64.7638908 197.456947,66.2284843 196.34223,66.6063278 C195.469051,66.9012257 191.756278,66.629898 194.012608,62.6756756 C194.323465,62.1305014 196.50506,61.8177909 196.50506,61.8177909" id="Fill-176" fill="#0F3871" mask="url(#mask-2)"></path>
                <polygon id="Fill-177" fill="#5FA8B8" mask="url(#mask-2)" points="93.9126096 144.01907 106.740242 143.806218 106.817325 145.416192"></polygon>
                <polygon id="Fill-178" fill="#5FA8B8" mask="url(#mask-2)" points="190.155978 86.4762009 201.892363 85.9418222 201.782786 87.6763039"></polygon>
                <path d="M95.0149603,129.668429 C95.0149603,129.668429 95.6689874,129.415454 96.0563852,129.195765 L96.2125358,127.336235 L95.0149603,129.668429 Z" id="Fill-179" fill="#5FA8B8" mask="url(#mask-2)"></path>
                <polygon id="Fill-180" fill="#5FA8B8" mask="url(#mask-2)" points="202.018709 76.5799393 200.503056 70.6724459 201.143002 75.3442111"></polygon>
                <polygon id="Fill-181" fill="#5FA8B8" mask="url(#mask-2)" points="188.992287 76.4442935 189.701914 73.1419411 189.701914 75.7639953"></polygon>
                <polygon id="Fill-182" fill="#5FA8B8" mask="url(#mask-2)" points="194.295087 67.6943732 193.773201 67.5812001 193.773201 67.8476697"></polygon>
                <path d="M131.749009,2.35189599 C131.749009,2.35189599 133.278382,5.50185147 137.569182,5.18752165 L138.096123,2.84435205 C134.583909,2.97407832 133.584003,8.9962743e-05 133.584003,8.9962743e-05 C133.803517,1.33639655 131.749009,2.35189599 131.749009,2.35189599" id="Fill-183" fill="#FF9450" mask="url(#mask-2)"></path>
                <path d="M218.182729,65.5280523 C218.182729,65.5280523 224.138654,62.4835332 229.848529,61.7713881 L230.033744,59.2632268 C224.203822,57.0343099 218.016289,61.2371894 218.016289,61.2371894 C220.361796,61.6285273 218.182729,65.5280523 218.182729,65.5280523" id="Fill-184" fill="#FBC900" mask="url(#mask-2)"></path>
                <path d="M62.1298335,84.2897644 C62.1298335,84.2897644 58.4060489,89.5675187 53.4911876,92.2206999 L54.8487045,95.0298765 C61.6700468,95.557418 64.905342,88.9278836 64.905342,88.9278836 C62.4661439,89.2684825 62.1298335,84.2897644 62.1298335,84.2897644" id="Fill-185" fill="#9EDEFF" mask="url(#mask-2)"></path>
                <path d="M198.284526,30.6019606 C198.284526,30.6019606 206.356517,27.0741616 213.948684,27.4343724 L214.355758,23.209722 C206.786518,17.8087187 198.333989,23.2534439 198.333989,23.2534439 C201.416383,24.5703185 198.284526,30.6019606 198.284526,30.6019606" id="Fill-186" fill="#0F3871" mask="url(#mask-2)"></path>
                <path d="M124.349946,94.5363049 C124.349946,94.5363049 125.880401,97.6862604 130.171022,97.3740897 L130.698323,95.0285811 C127.185026,95.1584873 126.185843,92.1864781 126.185843,92.1864781 C126.404273,93.5206256 124.349946,94.5363049 124.349946,94.5363049" id="Fill-187" fill="#FF9450" mask="url(#mask-2)"></path>
                <path d="M136.113606,39.8469459 C136.113606,39.8469459 142.069171,36.8026066 147.779407,36.0904616 L147.964802,33.5801412 C142.1347,31.3533834 135.947166,35.5562628 135.947166,35.5562628 C138.293938,35.9452617 136.113606,39.8469459 136.113606,39.8469459" id="Fill-188" fill="#FBC900" mask="url(#mask-2)"></path>
                <path d="M38.7371262,4.09168548 C38.7371262,4.09168548 35.013161,9.36943976 30.0984802,12.0247801 L31.4559972,14.8317976 C38.2773395,15.3614982 41.5126346,8.72980466 41.5126346,8.72980466 C39.0734366,9.0704036 38.7371262,4.09168548 38.7371262,4.09168548" id="Fill-189" fill="#EE8037" mask="url(#mask-2)"></path>
                <path d="M264.860409,50.4145814 C264.860409,50.4145814 261.136985,55.6923357 256.221763,58.347676 L257.57946,61.1546935 C264.400802,61.6842142 267.636278,55.0527006 267.636278,55.0527006 C265.196719,55.3932995 264.860409,50.4145814 264.860409,50.4145814" id="Fill-190" fill="#EE8037" mask="url(#mask-2)"></path>
                <path d="M68.6946918,28.5518716 C68.6946918,28.5518716 60.6227008,32.0798505 53.0305344,31.7192798 L52.6238208,35.9441102 C60.1927001,41.3451134 68.6450485,35.9000284 68.6450485,35.9000284 C65.5628351,34.5835137 68.6946918,28.5518716 68.6946918,28.5518716" id="Fill-191" fill="#9EDEFF" mask="url(#mask-2)"></path>
                <path d="M156.666883,85.5664617 C156.666883,85.5664617 153.749304,86.8417735 151.005387,86.7113276 L150.858263,88.2383552 C153.594057,90.1903667 156.649011,88.2225217 156.649011,88.2225217 C155.535017,87.7467987 156.666883,85.5664617 156.666883,85.5664617" id="Fill-192" fill="#9EDEFF" mask="url(#mask-2)"></path>
                <path d="M25.471315,36.1659403 C25.471315,36.1659403 23.9726307,38.2901406 21.9944829,39.3587181 L22.5411001,40.4884702 C25.2864616,40.701502 26.5885587,38.0326672 26.5885587,38.0326672 C25.6068861,38.1697705 25.471315,36.1659403 25.471315,36.1659403" id="Fill-193" fill="#9EDEFF" mask="url(#mask-2)"></path>
                <path d="M272.882486,73.7376924 C272.882486,73.7376924 271.383801,75.8618927 269.405653,76.9304702 L269.952451,78.0604022 C272.697632,78.2732541 273.99991,75.6044193 273.99991,75.6044193 C273.017876,75.7415226 272.882486,73.7376924 272.882486,73.7376924" id="Fill-194" fill="#9EDEFF" mask="url(#mask-2)"></path>
                <path d="M57.4647589,57.2250489 C57.4647589,57.2250489 54.2157442,58.6450209 51.1602479,58.499821 L50.9965154,60.2004767 C54.0426247,62.3739766 57.4447211,60.1824842 57.4447211,60.1824842 C56.2043621,59.6526036 57.4647589,57.2250489 57.4647589,57.2250489" id="Fill-195" fill="#0F3871" mask="url(#mask-2)"></path>
                <path d="M232.786759,29.0705788 C232.786759,29.0705788 230.33312,32.5478187 227.095658,34.2957948 L227.989778,36.1463284 C232.483665,36.4939445 234.615255,32.1262533 234.615255,32.1262533 C233.008439,32.3504405 232.786759,29.0705788 232.786759,29.0705788" id="Fill-196" fill="#9EDEFF" mask="url(#mask-2)"></path>
                <path d="M229.7135,11.2392254 C229.7135,11.2392254 227.572883,12.1748379 225.559353,12.0791176 L225.452124,13.1996935 C227.458613,14.6315405 229.700141,13.1878184 229.700141,13.1878184 C228.882562,12.838763 229.7135,11.2392254 229.7135,11.2392254" id="Fill-197" fill="#0F3871" mask="url(#mask-2)"></path>
            </g>
        </g>
    </g>
</svg>